# xmcd CD database file
#
# Track frame offsets:
#	150
#	11355
#	20607
#	30942
#	41697
#	52332
#	67395
#	75415
#	84210
#	95492
#	103600
#	115477
#
# Disc length: 1653 seconds
#
# Revision: 0
# Processed by: cddbd v1.5.1PL2 Copyright (c) Steve Scherf et al.
# Submitted via: CDex 1.51
#
DISCID=9306730c
DTITLE=Roger Miller - Greatest Hits Finest Performances
DYEAR=1900
DGENRE=Country
TTITLE0=King Of The Road
TTITLE1=Chug- A- Lug
TTITLE2=Engine, Engine #9
TTITLE3=When Two Worlds Collide
TTITLE4=Kansas City Star
TTITLE5=Me And Bobby McGee
TTITLE6=Dang Me
TTITLE7=England Swings
TTITLE8=Husbands And Wives
TTITLE9=Do-Wacka-Do
TTITLE10=Walking In The Sunshine
TTITLE11=You Can't Roller Skate In A Buffalo Herd
EXTD=
EXTT0=
EXTT1=
EXTT2=
EXTT3=
EXTT4=
EXTT5=
EXTT6=
EXTT7=
EXTT8=
EXTT9=
EXTT10=
EXTT11=
PLAYORDER=
